# xmcd CD database file
#
# Track frame offsets:
#	150
#	21335
#	53151
#	82271
#	101276
#	119147
#	148421
#	171910
#	190473
#	218233
#	220912
#
# Disc length: 3299 seconds
#
# Revision: 1
# Processed by: cddbd v1.5.1PL2 Copyright (c) Steve Scherf et al.
# Submitted via: CDex 1.50
#
DISCID=b10ce10b
DTITLE=Various Artist - Inspirational Lifestyles - Beside Still Waters
DYEAR=1998
DGENRE=Gospel
TTITLE0=Quiet Times - Andrae Crouch
TTITLE1=Be Grateful - Walter Hawkins
TTITLE2=I Really Love You - Calvin Bernard Rhone
TTITLE3=Lost Without You - Allen and Allen
TTITLE4=We Need To Hear From You - Sandra Crouch and Friends
TTITLE5=Holy One - Tramaine Hawkins
TTITLE6=I'll Be Thinking Of You - Andrae Crouch
TTITLE7=Tomorrow - The Winans
TTITLE8=Speak To My Heart - Hubert Powell
TTITLE9=Interlude - Danniebelle Hall
TTITLE10=He Knows Best - Danniebelle Hall
EXTD=YEAR: 1998
EXTT0=
EXTT1=
EXTT2=
EXTT3=
EXTT4=
EXTT5=
EXTT6=
EXTT7=
EXTT8=
EXTT9=
EXTT10=
PLAYORDER=
